<svg height="464pt" viewBox="-31 0 463 464" width="464pt" xmlns="http://www.w3.org/2000/svg"><path d="m320.5 0c-8.824219.0273438-15.972656 7.175781-16 16v392h-296c-4.417969 0-8-3.582031-8-8v-384c.027344-8.824219 7.175781-15.9726562 16-16zm0 0" fill="#e6e7e8"/><path d="m384.5 344c0 66.273438-53.726562 120-120 120s-120-53.726562-120-120 53.726562-120 120-120c13.628906-.019531 27.160156 2.308594 40 6.878906 47.941406 16.949219 79.992188 62.273438 80 113.121094zm0 0" fill="#ff5023"/><path d="m400.5 64v48c-.027344 8.824219-7.175781 15.972656-16 16h-16c-8.824219-.027344-15.972656-7.175781-16-16v-48zm0 0" fill="#d1d3d4"/><path d="m368.5 128h-64v-112c.027344-8.824219 7.175781-15.9726562 16-16h16c8.824219.0273438 15.972656 7.175781 16 16v96c.027344 8.824219 7.175781 15.972656 16 16zm0 0" fill="#bcbec0"/><path d="m360.5 344c-.109375 42.464844-28.179688 79.785156-68.949219 91.675781-40.769531 11.886719-84.496093-4.5-107.414062-40.25-22.917969-35.753906-19.550781-82.328125 8.273437-114.410156 27.824219-32.082031 73.457032-42.003906 112.089844-24.375 34.152344 15.652344 56.035156 49.789063 56 87.359375zm0 0" fill="#ffa733"/><path d="m287.140625 344 17.359375-17.359375 16.558594-16.5625-22.636719-22.636719-33.921875 33.917969-33.921875-33.917969-22.636719 22.636719 33.917969 33.921875-33.917969 33.921875 22.636719 22.636719 33.921875-33.917969 33.921875 33.917969 22.636719-22.636719-16.558594-16.5625zm0 0" fill="#ff5023"/><path d="m40.5 48h208v64h-208zm0 0" fill="#ffa733"/><path d="m40.5 152h48v16h-48zm0 0" fill="#ffb655"/><path d="m104.5 152h160v16h-160zm0 0" fill="#ffc477"/><path d="m40.5 200h160v16h-160zm0 0" fill="#ffc477"/><path d="m40.5 248h80v16h-80zm0 0" fill="#ffb655"/><path d="m40.5 296h80v16h-80zm0 0" fill="#ffc477"/><path d="m40.5 352h80v16h-80zm0 0" fill="#ffb655"/></svg>