<?xml version="1.0" encoding="iso-8859-1"?>
<!-- Generator: Adobe Illustrator 19.0.0, SVG Export Plug-In . SVG Version: 6.00 Build 0)  -->
<svg version="1.1" id="Capa_1" xmlns="http://www.w3.org/2000/svg" xmlns:xlink="http://www.w3.org/1999/xlink" x="0px" y="0px"
	 viewBox="0 0 384 384" style="enable-background:new 0 0 384 384;" xml:space="preserve">
<linearGradient id="SVGID_1_" gradientUnits="userSpaceOnUse" x1="-85.4605" y1="553.9575" x2="-32.6135" y2="501.1145" gradientTransform="matrix(8 0 0 -8 793.016 4509)">
	<stop  offset="0" style="stop-color:#EFEEEE"/>
	<stop  offset="1" style="stop-color:#DEDEDD"/>
</linearGradient>
<polygon style="fill:url(#SVGID_1_);" points="64,0 64,384 288,384 384,288 384,0 "/>
<polygon style="fill:#ABABAB;" points="288,288 288,384 384,288 "/>
<polygon style="fill:#DEDEDD;" points="192,384 288,384 288,288 "/>
<path style="fill:#402D7A;" d="M0,96v112h256V96H0z"/>
<g>
	<path style="fill:#FFFFFF;" d="M59.568,129.184H36.032v-11.328h39.456v10.464l-25.632,46.752h26.016V186.4H34.32v-10.08
		L59.568,129.184z"/>
	<path style="fill:#FFFFFF;" d="M93.248,117.856h13.824V186.4H93.248V117.856z"/>
	<path style="fill:#FFFFFF;" d="M151.136,117.84c3.52,0,6.464,0.608,8.88,1.792s4.336,2.736,5.808,4.656s2.528,4.112,3.168,6.576
		c0.624,2.448,0.96,4.976,0.96,7.536c0,3.52-0.528,6.592-1.584,9.216c-1.056,2.624-2.528,4.768-4.416,6.416
		c-1.888,1.664-4.176,2.928-6.864,3.744s-5.664,1.248-8.944,1.248h-7.392v27.36h-13.808V117.84H151.136z M146.912,148.896
		c2.752,0,4.992-0.848,6.672-2.512c1.696-1.664,2.544-4.256,2.544-7.776c0-3.456-0.736-6.08-2.208-7.872
		c-1.472-1.776-3.936-2.688-7.392-2.688h-5.76v20.848H146.912z"/>
</g>
<g>
</g>
<g>
</g>
<g>
</g>
<g>
</g>
<g>
</g>
<g>
</g>
<g>
</g>
<g>
</g>
<g>
</g>
<g>
</g>
<g>
</g>
<g>
</g>
<g>
</g>
<g>
</g>
<g>
</g>
</svg>
